<?xml version="1.0" encoding="UTF-8"?>
<svg version="1.1" xmlns="http://www.w3.org/2000/svg" width="409" height="541">
<path d="M0 0 C17.58454118 -0.02332838 35.16907754 -0.04097887 52.75363064 -0.05181217 C60.91787164 -0.05697526 69.08210305 -0.0640182 77.24633789 -0.07543945 C84.35971284 -0.0853859 91.47308085 -0.09185333 98.58646256 -0.09408849 C102.35525724 -0.09539567 106.12403203 -0.09848194 109.89282036 -0.10573006 C114.09318816 -0.11374316 118.29352108 -0.11399116 122.49389648 -0.11352539 C123.75265091 -0.11712067 125.01140533 -0.12071594 126.30830383 -0.12442017 C128.01423203 -0.12235817 128.01423203 -0.12235817 129.75462341 -0.12025452 C130.74923804 -0.12117631 131.74385267 -0.1220981 132.76860714 -0.12304783 C135 0 135 0 136 1 C136.09883249 3.07713499 136.12555718 5.15770055 136.12584114 7.23718548 C136.12729458 7.8993642 136.12874802 8.56154293 136.13024551 9.24378768 C136.13393118 11.4904843 136.13040724 13.73711416 136.12698364 15.98381042 C136.12813448 17.59986748 136.12972174 19.21592428 136.13171089 20.83198053 C136.13590999 25.29491969 136.13381086 29.75783765 136.13072467 34.22077692 C136.1284729 39.0261178 136.13194922 43.8314549 136.13470459 48.63679504 C136.139165 58.06287466 136.13818424 67.48894634 136.13529195 76.91502627 C136.13303723 84.57983439 136.1327257 92.24464027 136.13381577 99.90944862 C136.133969 100.99876334 136.13412223 102.08807806 136.13428011 103.21040231 C136.13459983 105.42321854 136.13492404 107.63603477 136.1352527 109.848851 C136.13810873 130.63227846 136.13481946 151.41570151 136.12945233 172.19912825 C136.12499234 190.02069383 136.12575334 207.8422529 136.13037109 225.66381836 C136.13572876 246.35069569 136.13782542 267.03756914 136.13475883 287.72444707 C136.13444028 289.93328019 136.13412591 292.14211331 136.13381577 294.35094643 C136.13366149 295.43774091 136.13350721 296.5245354 136.13334826 297.64426306 C136.13248608 305.29055994 136.13393974 312.93685436 136.13629532 320.58315086 C136.13910711 329.91590091 136.13832635 339.24864256 136.13301457 348.58139165 C136.1303949 353.3404889 136.12934289 358.09957216 136.13266373 362.85866928 C136.13566304 367.22328578 136.13397381 371.58787544 136.12868617 375.95248953 C136.12757731 377.52403049 136.12811879 379.09557376 136.13056196 380.66711321 C136.16566829 405.14436622 132.93758654 426.80399104 122 449 C121.52691406 449.969375 121.05382812 450.93875 120.56640625 451.9375 C118.80990038 455.37166608 116.92564408 458.72157991 115 462.0625 C114.65710938 462.66126953 114.31421875 463.26003906 113.9609375 463.87695312 C112.97913324 465.58761589 111.98973107 467.29391117 111 469 C110.46375 469.96808594 109.9275 470.93617188 109.375 471.93359375 C108.92125 472.61550781 108.4675 473.29742187 108 474 C107.34 474 106.68 474 106 474 C105.69642578 475.00933594 105.69642578 475.00933594 105.38671875 476.0390625 C103.49153278 480.08568493 100.76855217 483.05569001 97.8125 486.375 C97.26013672 487.00921875 96.70777344 487.6434375 96.13867188 488.296875 C87.85525764 497.72515137 87.85525764 497.72515137 84 501 C83.34 501 82.68 501 82 501 C81.67 501.99 81.34 502.98 81 504 C79.35360035 505.35827971 77.68704193 506.69254251 76 508 C75.67 508.66 75.34 509.32 75 510 C73.67491921 510.80026761 72.31394234 511.54171063 70.9375 512.25 C67.77916336 513.94605165 64.93867418 515.71801788 62.125 517.9375 C53.71094189 524.41367465 39.8597074 533 29 533 C29 533.66 29 534.32 29 535 C27.12699975 535.65161012 25.2514945 536.29602195 23.375 536.9375 C22.33085937 537.29714844 21.28671875 537.65679688 20.2109375 538.02734375 C15.05722705 539.58850422 10.16270087 540.12583926 4.79008484 540.17167664 C3.5642569 540.18435577 2.33842896 540.19703491 1.07545471 540.21009827 C-0.27041555 540.21919154 -1.61628655 540.22817529 -2.9621582 540.23706055 C-4.39044534 540.24992772 -5.81872904 540.26318259 -7.24700928 540.27679443 C-11.12214704 540.31232873 -14.99730745 540.34162013 -18.87250924 540.36918616 C-21.30532161 540.38675153 -23.73812035 540.40562093 -26.17091942 540.42493629 C-34.69358642 540.49250759 -43.21627442 540.5548332 -51.73901367 540.61254883 C-59.62082347 540.6660673 -67.50247806 540.73119216 -75.3841508 540.80188721 C-82.19135057 540.86238887 -88.99858334 540.91424936 -95.80589932 540.95981437 C-99.85264654 540.98705166 -103.89929832 541.01750205 -107.94594765 541.05682945 C-166.68441717 541.61586402 -166.68441717 541.61586402 -190 531 C-191.31677734 530.44699219 -191.31677734 530.44699219 -192.66015625 529.8828125 C-199.57768257 526.90564927 -205.74878147 523.17991925 -212 519 C-213.14082031 518.2575 -213.14082031 518.2575 -214.3046875 517.5 C-231.85473586 506.00815339 -243.77833445 494.57543962 -255 477 C-255.50917969 476.20464844 -256.01835937 475.40929687 -256.54296875 474.58984375 C-267.54634628 456.10844265 -270.85353594 434.51281763 -271.5234375 413.40625 C-271.56455658 412.13213257 -271.60567566 410.85801514 -271.64804077 409.54528809 C-272.21333819 391.01650209 -272.36908027 372.47750343 -272.55761719 353.94189453 C-272.61243848 348.57825648 -272.67644805 343.2147712 -272.74279213 337.85126495 C-272.79373118 333.61416083 -272.83846018 329.37700599 -272.88163376 325.13981628 C-272.90264541 323.16616966 -272.92567301 321.19254305 -272.9510994 319.21894836 C-273.16320073 302.43149926 -272.56043951 285.8131854 -272 269 C-226.13 269 -180.26 269 -133 269 C-132.6875 321.5 -132.6875 321.5 -132.61206055 338.04882812 C-132.57547637 342.96382188 -132.57547637 342.96382188 -132.5349884 347.87878418 C-132.51888746 350.06006611 -132.50856631 352.24139554 -132.50288391 354.42272949 C-132.49311317 357.73585227 -132.46473796 361.04835901 -132.43237305 364.36132812 C-132.43379901 365.32558968 -132.43522497 366.28985123 -132.43669415 367.28333282 C-132.29837902 377.2305705 -129.06409507 384.86010991 -122 392 C-119.10809595 393.40844651 -119.10809595 393.40844651 -116 394 C-114.73786124 394.64338961 -113.48862357 395.31242739 -112.25 396 C-101.97600933 401.15651327 -90.21621441 400.42056549 -79 400.625 C-77.31899288 400.66330061 -75.63800285 400.70235869 -73.95703125 400.7421875 C-65.70535906 400.92859493 -57.45293923 401.0406592 -49.19921875 401.07421875 C-48.4781897 401.07962677 -47.75716064 401.08503479 -47.01428223 401.09060669 C-35.02405602 401.10170027 -24.08569336 399.56747715 -15.05078125 391.19921875 C-3.48023521 378.79118557 -0.38311728 365.27008391 -0.48101807 348.61784363 C-0.47512981 347.10518906 -0.46749603 345.59254047 -0.458287 344.07990247 C-0.43817027 339.95899428 -0.44254272 335.83843317 -0.45119452 331.71749866 C-0.45616401 327.26025074 -0.438024 322.80308727 -0.42277527 318.34587097 C-0.39951966 310.63529163 -0.39071222 302.92480619 -0.39188385 295.21419334 C-0.39355666 284.06613989 -0.37318201 272.91821121 -0.34752855 261.77019111 C-0.30649574 243.68070315 -0.28314688 225.59123771 -0.27099609 207.50170898 C-0.25915885 189.93560625 -0.2389452 172.36954588 -0.20751953 154.8034668 C-0.20558343 153.71961581 -0.20364733 152.63576483 -0.20165256 151.51906987 C-0.19188763 146.08138593 -0.18195858 140.6437023 -0.17194796 135.20601881 C-0.0891899 90.13736653 -0.03516376 45.06871286 0 0 Z " fill="#FABE19" transform="translate(273,0)"/>
<path d="M0 0 C0.33 0 0.66 0 1 0 C1.02289921 49.57278312 1.04051494 99.1455657 1.05106533 148.71835307 C1.05231601 154.57362862 1.05361033 160.42890416 1.05493164 166.28417969 C1.05532511 168.03266673 1.05532511 168.03266673 1.05572652 169.81647675 C1.06007537 188.67957791 1.06795861 207.54267603 1.0771528 226.40577538 C1.08651116 245.76747527 1.09206024 265.12917355 1.09408849 284.4908756 C1.09545918 296.43374978 1.09978521 308.37661532 1.10791647 320.31948684 C1.11321084 328.51411521 1.11479817 336.70873913 1.11350138 344.90336908 C1.11286221 349.62803106 1.11382777 354.35267798 1.11920547 359.07733727 C1.12410137 363.41053469 1.12429834 367.74370703 1.12089889 372.07690565 C1.12047925 373.63703724 1.1217225 375.19717046 1.12488318 376.7572989 C1.17161414 401.26721473 -2.06913518 422.81763167 -13 445 C-13.47308594 445.969375 -13.94617188 446.93875 -14.43359375 447.9375 C-16.19009962 451.37166608 -18.07435592 454.72157991 -20 458.0625 C-20.34289062 458.66126953 -20.68578125 459.26003906 -21.0390625 459.87695312 C-22.02086676 461.58761589 -23.01026893 463.29391117 -24 465 C-24.53625 465.96808594 -25.0725 466.93617188 -25.625 467.93359375 C-26.07875 468.61550781 -26.5325 469.29742187 -27 470 C-27.66 470 -28.32 470 -29 470 C-29.30357422 471.00933594 -29.30357422 471.00933594 -29.61328125 472.0390625 C-31.50846722 476.08568493 -34.23144783 479.05569001 -37.1875 482.375 C-37.73986328 483.00921875 -38.29222656 483.6434375 -38.86132812 484.296875 C-47.14474236 493.72515137 -47.14474236 493.72515137 -51 497 C-51.66 497 -52.32 497 -53 497 C-53.33 497.99 -53.66 498.98 -54 500 C-55.64639965 501.35827971 -57.31295807 502.69254251 -59 504 C-59.33 504.66 -59.66 505.32 -60 506 C-61.32508079 506.80026761 -62.68605766 507.54171063 -64.0625 508.25 C-67.22083664 509.94605165 -70.06132582 511.71801788 -72.875 513.9375 C-81.28905811 520.41367465 -95.1402926 529 -106 529 C-106 529.66 -106 530.32 -106 531 C-107.87300025 531.65161012 -109.7485055 532.29602195 -111.625 532.9375 C-113.19121094 533.47697266 -113.19121094 533.47697266 -114.7890625 534.02734375 C-119.94277295 535.58850422 -124.83729913 536.12583926 -130.20991516 536.17167664 C-131.4357431 536.18435577 -132.66157104 536.19703491 -133.92454529 536.21009827 C-135.27041555 536.21919154 -136.61628655 536.22817529 -137.9621582 536.23706055 C-139.39044534 536.24992772 -140.81872904 536.26318259 -142.24700928 536.27679443 C-146.12214704 536.31232873 -149.99730745 536.34162013 -153.87250924 536.36918616 C-156.30532161 536.38675153 -158.73812035 536.40562093 -161.17091942 536.42493629 C-169.69358642 536.49250759 -178.21627442 536.5548332 -186.73901367 536.61254883 C-194.62082347 536.6660673 -202.50247806 536.73119216 -210.3841508 536.80188721 C-217.19135057 536.86238887 -223.99858334 536.91424936 -230.80589932 536.95981437 C-234.85264654 536.98705166 -238.89929832 537.01750205 -242.94594765 537.05682945 C-301.68441717 537.61586402 -301.68441717 537.61586402 -325 527 C-325.87785156 526.63132812 -326.75570312 526.26265625 -327.66015625 525.8828125 C-334.57943839 522.90489361 -340.72758929 519.14697033 -347 515 C-348.55922016 514.01561892 -350.12135503 513.03582601 -351.6875 512.0625 C-352.780625 511.381875 -353.87375 510.70125 -355 510 C-353.91525391 508.95392578 -353.91525391 508.95392578 -352.80859375 507.88671875 C-349.97893657 505.05308873 -347.50439229 501.98117872 -345.0625 498.8125 C-344.59505371 498.21228027 -344.12760742 497.61206055 -343.64599609 496.99365234 C-342.09355302 494.99866911 -340.54627788 492.99976491 -339 491 C-336.7099173 488.04043612 -334.41824181 485.08211674 -332.125 482.125 C-331.53984619 481.36944824 -330.95469238 480.61389648 -330.35180664 479.83544922 C-326.31211172 474.63704779 -322.18021445 469.52325664 -318 464.4375 C-313.66560585 459.15977949 -309.55649767 453.84629754 -306 448 C-302.04904438 448.54662959 -299.81559524 449.62336357 -296.6875 452.0625 C-286.54347536 459.39461915 -275.36489176 464.79328628 -263 467 C-262.07273165 467.17143556 -261.14546329 467.34287111 -260.1900959 467.51950169 C-257.17676975 467.9733746 -254.35380709 468.13883622 -251.31002808 468.16062927 C-250.20003952 468.1706749 -249.09005096 468.18072052 -247.94642639 468.19107056 C-246.14159035 468.19981705 -246.14159035 468.19981705 -244.30029297 468.20874023 C-243.02146744 468.21852402 -241.74264191 468.2283078 -240.42506409 468.23838806 C-236.19746893 468.26963496 -231.96985494 468.29002494 -227.7421875 468.30859375 C-227.02062171 468.31189107 -226.29905591 468.31518839 -225.55562449 468.31858563 C-218.73904029 468.34936105 -211.92245128 468.37604152 -205.10581779 468.39300442 C-196.41834488 468.41488468 -187.73149183 468.45682449 -179.04426658 468.52644199 C-172.91832248 468.57384944 -166.79254464 468.5979601 -160.66642296 468.6052013 C-157.01612359 468.61013232 -153.36652476 468.6249664 -149.71642685 468.6649456 C-145.63593449 468.70905334 -141.5567978 468.70487838 -137.47607422 468.69702148 C-136.28499557 468.71702209 -135.09391693 468.73702271 -133.866745 468.75762939 C-120.90344329 468.64612497 -111.87610481 462.76595383 -102.875 453.97265625 C-81.8734232 432.52886711 -64.56837202 402.07582618 -64.75708008 371.49951172 C-64.75426655 369.9970362 -64.75426655 369.9970362 -64.75139618 368.46420765 C-64.7477372 365.11929051 -64.75854222 361.77458627 -64.76953125 358.4296875 C-64.77039295 355.99290481 -64.77046588 353.55612174 -64.76982117 351.11933899 C-64.77086514 345.1385291 -64.7818071 339.15780964 -64.79741591 333.17702597 C-64.80998889 328.26040281 -64.81783606 323.34379108 -64.82275391 318.42715454 C-64.88327844 259.54133787 -65.23851005 200.65626994 -65.62595618 141.77182782 C-65.64367865 139.0783235 -65.66131962 136.38481866 -65.67895031 133.69131374 C-65.74539899 123.54861628 -65.74539899 123.54861628 -65.81485558 113.4059391 C-65.82025547 112.62907602 -65.82565537 111.85221293 -65.8312189 111.05180854 C-65.84206157 109.51396444 -65.85322775 107.97612258 -65.86472923 106.43828326 C-65.89136694 102.77156435 -65.91107783 99.1050988 -65.91408253 95.43827915 C-65.92389661 89.1893942 -65.97228706 82.95921325 -66.26963663 76.71641582 C-66.36327073 74.68971487 -66.43643542 72.66330937 -66.50304413 70.63555622 C-66.59048002 68.16163931 -66.71661068 65.68863989 -66.89008331 63.21926403 C-67.1143569 55.28181121 -67.1143569 55.28181121 -63.85322571 51.53063011 C-61.32089976 49.48743018 -58.75504167 47.72622598 -56 46 C-54.80492774 45.08282327 -53.61902266 44.15320697 -52.453125 43.19921875 C-51.38577683 42.36152006 -50.31806679 41.52428225 -49.25 40.6875 C-48.04686527 39.74350198 -46.84374056 38.7994912 -45.640625 37.85546875 C-45.03798828 37.38286621 -44.43535156 36.91026367 -43.81445312 36.42333984 C-41.45558512 34.57293612 -39.09818687 32.72066638 -36.7409668 30.86816406 C-35.57848224 29.95460867 -34.4158842 29.04119766 -33.25317383 28.12792969 C-30.32210743 25.825621 -27.39230043 23.52174102 -24.46484375 21.21484375 C-23.88114014 20.75529297 -23.29743652 20.29574219 -22.69604492 19.82226562 C-21.53287372 18.90632684 -20.37026646 17.98967141 -19.20825195 17.07226562 C-16.25197414 14.74442189 -13.27740603 12.44710148 -10.265625 10.19140625 C-9.66500244 9.73902588 -9.06437988 9.28664551 -8.44555664 8.82055664 C-7.30088777 7.96074357 -6.15182549 7.10673859 -4.99780273 6.25952148 C-2.29353612 4.22375401 -1.09812845 3.29438536 0 0 Z " fill="#202020" transform="translate(408,4)"/>
<path d="M0 0 C45.87 0 91.74 0 139 0 C136.78244127 8.8702349 124.66587086 14.12003221 117.19308472 18.73068237 C114.04680383 20.55169264 110.79289409 22.12245449 107.52774048 23.71746826 C87.49047132 33.1841764 87.49047132 33.1841764 73.89312744 49.68493652 C70.43431257 62.96216666 72.66269597 77.365024 74.3125 90.77636719 C75.31606946 99.17816998 75.35657649 107.56051973 75.41360474 116.01132202 C75.06261425 135.4987204 75.06261425 135.4987204 80.0625 154 C80.37195557 154.67933594 80.68141113 155.35867188 81.00024414 156.05859375 C85.62295606 165.8426982 92.14171857 173.63977866 100 181 C100.66 181.66 101.32 182.32 102 183 C96.87005778 190.20249767 91.53555535 197.20002079 86.05078125 204.1328125 C82.69282283 208.37896248 79.37896641 212.65892186 76.0625 216.9375 C71.01284037 223.44740271 65.90816731 229.90932022 60.73071289 236.31811523 C58.70915426 238.82667772 56.78863714 241.31704429 55 244 C45.17328558 242.84391595 35.41104364 232.97701096 29 226 C26.88985755 223.15386968 24.93988457 220.21398607 23 217.25 C22.49210937 216.48945313 21.98421875 215.72890625 21.4609375 214.9453125 C7.07826172 193.18690556 1.29848309 170.30247668 0.4765625 144.40625 C0.41488388 142.49507385 0.41488388 142.49507385 0.35195923 140.54528809 C-0.21333819 122.01650209 -0.36908027 103.47750343 -0.55761719 84.94189453 C-0.61243848 79.57825648 -0.67644805 74.2147712 -0.74279213 68.85126495 C-0.79373118 64.61416083 -0.83846018 60.37700599 -0.88163376 56.13981628 C-0.90264541 54.16616966 -0.92567301 52.19254305 -0.9510994 50.21894836 C-1.16320073 33.43149926 -0.56043951 16.8131854 0 0 Z " fill="#FABE18" transform="translate(1,269)"/>
<path d="M0 0 C0.00586624 1.27262695 0.01173248 2.54525391 0.01777649 3.85644531 C0.07504322 15.86245159 0.14782581 27.86827743 0.23571491 39.87409973 C0.2804009 46.04609872 0.31966118 52.21803197 0.34643555 58.39013672 C0.37248582 64.34897299 0.41290107 70.30755604 0.46318626 76.26623535 C0.47984319 78.53711797 0.49136476 80.80804438 0.49761391 83.07897949 C0.50726748 86.26516124 0.53534293 89.45069684 0.56762695 92.63671875 C0.56619186 93.57108261 0.56475677 94.50544647 0.5632782 95.46812439 C0.67673301 103.40982454 2.4455501 109.64906696 7.5625 115.9375 C8.16191406 116.68902344 8.76132813 117.44054687 9.37890625 118.21484375 C10.89107356 120.09616267 10.89107356 120.09616267 13 121 C11.38245459 124.75342028 8.94810896 127.67653987 6.3125 130.75 C5.83844727 131.3071167 5.36439453 131.8642334 4.87597656 132.43823242 C0.20860368 137.863867 -4.67706778 143.0808945 -9.6081543 148.26660156 C-15.91765754 154.90818392 -21.89254675 161.82378228 -27.8125 168.8125 C-28.28880859 169.37130859 -28.76511719 169.93011719 -29.25585938 170.50585938 C-31.31864691 172.94000669 -33.2277848 175.34167721 -35 178 C-37.3515625 178.4296875 -37.3515625 178.4296875 -40 178 C-50.02360654 170.6682454 -56.38760503 159.24595179 -61 148 C-61.3393457 147.22108398 -61.67869141 146.44216797 -62.02832031 145.63964844 C-66.68244107 132.99634351 -64.57712527 116.09887863 -64.81784058 102.66778564 C-64.9331688 96.47132327 -65.121795 90.28019196 -65.33872986 84.08650208 C-65.48532953 79.55069886 -65.58289198 75.01461118 -65.67062378 70.47732544 C-65.72329411 68.25287977 -65.7953217 66.02880339 -65.88723755 63.80563354 C-66.59086645 46.29778765 -66.59086645 46.29778765 -63.01660156 41.13525391 C-60.13060775 38.99022967 -57.24765535 37.53938674 -54 36 C-51.57767463 34.47398832 -49.24188427 32.82800337 -46.890625 31.1953125 C-45.62983043 30.35213031 -44.36677684 29.51231686 -43.1015625 28.67578125 C-42.46637695 28.25506348 -41.83119141 27.8343457 -41.17675781 27.40087891 C-40.54092773 26.97983887 -39.90509766 26.55879883 -39.25 26.125 C-37.98162319 25.28277439 -36.71339356 24.44032708 -35.4453125 23.59765625 C-32.9152901 21.91685625 -30.38488712 20.23663247 -27.85400391 18.55712891 C-26.91056122 17.93103729 -26.91056122 17.93103729 -25.94805908 17.29229736 C-24.61523341 16.40813162 -23.2821737 15.52431859 -21.94891357 14.64080811 C-19.91562502 13.29304708 -17.88350058 11.94354593 -15.8515625 10.59375 C-15.23597473 10.18633575 -14.62038696 9.77892151 -13.98614502 9.35916138 C-10.8460444 7.27113618 -3.62479165 0 0 0 Z " fill="#202020" transform="translate(140,272)"/>
</svg>
